<?xml version="1.0" encoding="utf-8"?>
<!-- Generator: Adobe Illustrator 26.2.0, SVG Export Plug-In . SVG Version: 6.00 Build 0)  -->
<svg version="1.1" id="Layer_1" xmlns="http://www.w3.org/2000/svg" xmlns:xlink="http://www.w3.org/1999/xlink" x="0px" y="0px"
	 viewBox="0 0 893.9 464.9" style="enable-background:new 0 0 893.9 464.9;" xml:space="preserve">
<style type="text/css">
	.st0{fill:#FFFFFF;}
	.st1{fill:#00718F;}
	.st2{fill:#C0BEBE;}
</style>
<g>
	<polygon class="st1" points="16,18.2 591.1,18.2 590.7,281.8 569.6,281.8 541.9,336.4 590.7,337.4 590,444.7 15.8,444.7 	"/>
	<path class="st0" d="M209.6,241.8c0,0-2.3,10,0,42.7c-4.1,0.1-16.8,0.3-16.8,0.3s2.3-25.6-20-34.1c-22.4-8.5-36.8-3.5-36.8-3.5
		s-19.4,2.9-30.9,19.7c-11.5,16.8-9.4,37.4-9.4,37.4s0,25.3,12.4,42.4c12.4,17.1,20.6,18.2,35.3,20.3c14.7,2.1,21.2,1.5,42.6,1.5
		c21.5,0,27.7-13.8,27.7-13.8l66.2-119.7H299c0,0,56.8,123.3,60.9,131.2c4.1,7.9,14.1,4.4,14.1,0c0-4.4,0-103.6,0-112.4
		c0-8.2-7.8-7.8-7.8-7.8H354v-8.7c0,0,33,1.4,50.6,1.4c17.6,0,56.5-1.5,56.5-1.5s23.6-1.2,48,8.9c22.5,10,31.2,35.6,31.2,35.6
		s7.9,21.5,0,48c-6.3,21-26.8,33.7-26.8,33.7s-29.1,16.9-55,16.9c-12,0-169.8,0-169.8,0v-8.8h17.4c0,0,9.2,0.8,6.6-6.6
		c-2.6-6-14-31.9-14-31.9l-54.7,0.3c0,0-7.6,16.8-15,28.2c-4.7,8.8,2.9,9.1,2.9,9.1l15.9,0v9.1L131,382.5c0,0-26.8,0.3-50.3-14.4
		c-22.7-13.8-28.2-37.4-28.2-37.4s-6.4-22.2,1.4-43.5c5.5-14.9,15.6-32.4,44-45.5c28.4-13.1,77.2-6,77.2-6L209.6,241.8z"/>
	<polygon class="st1" points="249.9,322.5 273.4,276 293.7,322.5 	"/>
	<path class="st1" d="M416.9,249.6c0,0-0.6,106.4-0.6,114c0.2,3.8,2.5,3.8,2.5,3.8s13.8,1,32.8-0.2c38.8-4.5,44.3-37.5,44.3-37.5
		s3.8-12.3,0.4-40.9c-3.4-29.5-30.2-38.1-30.2-38.1s-12.4-4.5-27.3-4.5C423.9,246.2,416.9,249.6,416.9,249.6z"/>
	<polygon class="st1" points="600,380.2 591.3,393.5 653.2,393.7 714,285.3 708.3,285.3 732,241.1 722.8,241.1 648.1,380.7 	"/>
	<polygon class="st1" points="590.7,337.4 590.7,281.8 630.1,281.8 600.2,337.4 	"/>
	<polygon class="st1" points="719.4,285.3 713.8,296.1 737.9,296.1 744,285.3 	"/>
	<polygon class="st1" points="698.5,381.1 691.6,393.1 760.1,393.1 812.7,297.2 846.4,297.2 878.1,242.7 862.6,242.7 838.1,286.1 
		804.4,286.1 752.7,380.7 	"/>
	<polygon class="st2" points="590,380.1 667.3,233.8 726.1,234.9 648.1,380.7 	"/>
	<polygon class="st2" points="689.6,381.2 752.7,380.7 804.4,286.1 838.1,286.1 866.7,235.4 735.1,235.4 708.3,285.3 744,285.3 	"/>
</g>
</svg>
